<svg xmlns="http://www.w3.org/2000/svg" version="1.1" width="1000" height="1000" viewBox="0 0 1000 1000"
	 xml:space="preserve">
<desc>Created with Fabric.js 3.5.0</desc>
<defs>
</defs>
<rect x="0" y="0" width="100%" height="100%" fill="#1e1e1e"/>
<g transform="matrix(0.7277 0 0 0.7277 611.5791 373.9663)" id="19796">
<g style="" vector-effect="non-scaling-stroke">
		<g transform="matrix(1 0 0 1 -0.5 0.0464)">
<path style="stroke: none; stroke-width: 1; stroke-dasharray: none; stroke-linecap: butt; stroke-dashoffset: 0; stroke-linejoin: miter; stroke-miterlimit: 4; is-custom-font: none; font-file-url: none; fill: rgb(77,184,135); fill-rule: evenodd; opacity: 1;" transform=" translate(-162, -108.5465)" d="M 32.5 7.5 C 32.427 9.02694 33.0937 10.0269 34.5 10.5 C 35.1504 66.3129 35.817 121.98 36.5 177.5 C 36.5 177.833 36.5 178.167 36.5 178.5 C 36.5 179.833 37.1667 180.5 38.5 180.5 C 65.3282 181.498 92.3282 181.831 119.5 181.5 C 119.715 179.821 119.048 178.821 117.5 178.5 C 111.744 174.08 107.078 168.747 103.5 162.5 C 103.715 160.821 103.048 159.821 101.5 159.5 C 89.182 138.098 86.3487 115.432 93 91.5 C 94.4554 85.2743 96.9554 79.6076 100.5 74.5 C 101.906 74.0269 102.573 73.0269 102.5 71.5 C 103.433 68.6298 105.1 66.2964 107.5 64.5 C 108.906 64.0269 109.573 63.0269 109.5 61.5 C 110.5 59.8333 111.833 58.5 113.5 57.5 C 116.764 55.9059 119.431 53.5725 121.5 50.5 C 121.5 49.8333 121.833 49.5 122.5 49.5 C 124.027 49.573 125.027 48.9063 125.5 47.5 C 142.451 36.6763 160.784 33.843 180.5 39 C 186.688 40.4464 192.354 42.9464 197.5 46.5 C 197.821 48.0481 198.821 48.7148 200.5 48.5 C 208.565 54.2305 215.232 61.2305 220.5 69.5 C 220.427 71.0269 221.094 72.0269 222.5 72.5 C 238.316 101.258 238.483 130.258 223 159.5 C 218.419 167.248 212.586 173.915 205.5 179.5 C 204.957 179.56 204.624 179.893 204.5 180.5 C 231.997 181.829 259.33 181.829 286.5 180.5 C 288.496 125.51 289.163 70.1767 288.5 14.5 C 288.884 10.7275 290.55 7.72755 293.5 5.5 C 295.027 5.57298 296.027 4.90632 296.5 3.5 C 308.921 -2.13596 318.254 1.19737 324.5 13.5 C 324.5 76.8333 324.5 140.167 324.5 203.5 C 322.474 209.216 318.808 213.549 313.5 216.5 C 212.5 216.5 111.5 216.5 10.5 216.5 C 4.63399 213.097 0.967319 208.097 -0.5 201.5 C -0.5 139.5 -0.5 77.5 -0.5 15.5 C 0.344644 14.3285 1.01131 12.9952 1.5 11.5 C 2.90632 11.0269 3.57298 10.0269 3.5 8.5 C 4.90632 8.02694 5.57298 7.02694 5.5 5.5 C 7.02694 5.57298 8.02694 4.90632 8.5 3.5 C 15.4468 -0.536126 22.4468 -0.369459 29.5 4 C 30.7101 5.0391 31.7101 6.20577 32.5 7.5 Z M 190.5 139.5 C 188.413 140.585 187.08 142.251 186.5 144.5 C 182.833 147.5 179.5 150.833 176.5 154.5 C 171.226 158.105 166.559 162.438 162.5 167.5 C 153.977 160.066 145.644 152.4 137.5 144.5 C 137.262 142.596 136.262 141.262 134.5 140.5 C 134.573 138.973 133.906 137.973 132.5 137.5 C 122.006 115.797 126.006 97.2969 144.5 82 C 169.784 72.0589 186.951 79.8922 196 105.5 C 198.743 117.612 196.91 128.945 190.5 139.5 Z" stroke-linecap="round"/>
</g>
		<g transform="matrix(1 0 0 1 -155.5 -104)">
<path style="stroke: none; stroke-width: 1; stroke-dasharray: none; stroke-linecap: butt; stroke-dashoffset: 0; stroke-linejoin: miter; stroke-miterlimit: 4; is-custom-font: none; font-file-url: none; fill: rgb(33,71,53); fill-rule: evenodd; opacity: 0.643;" transform=" translate(-7, -4.5)" d="M 8.5 3.5 C 8.02694 4.90632 7.02694 5.57298 5.5 5.5 C 5.97306 4.09368 6.97306 3.42702 8.5 3.5 Z" stroke-linecap="round"/>
</g>
		<g transform="matrix(1 0 0 1 132.5 -104)">
<path style="stroke: none; stroke-width: 1; stroke-dasharray: none; stroke-linecap: butt; stroke-dashoffset: 0; stroke-linejoin: miter; stroke-miterlimit: 4; is-custom-font: none; font-file-url: none; fill: rgb(40,88,66); fill-rule: evenodd; opacity: 0.788;" transform=" translate(-295, -4.5)" d="M 296.5 3.5 C 296.027 4.90632 295.027 5.57298 293.5 5.5 C 293.973 4.09368 294.973 3.42702 296.5 3.5 Z" stroke-linecap="round"/>
</g>
		<g transform="matrix(1 0 0 1 -158 -101.5)">
<path style="stroke: none; stroke-width: 1; stroke-dasharray: none; stroke-linecap: butt; stroke-dashoffset: 0; stroke-linejoin: miter; stroke-miterlimit: 4; is-custom-font: none; font-file-url: none; fill: rgb(34,71,53); fill-rule: evenodd; opacity: 0.69;" transform=" translate(-4.5, -7)" d="M 5.5 5.5 C 5.57298 7.02694 4.90632 8.02694 3.5 8.5 C 3.42702 6.97306 4.09368 5.97306 5.5 5.5 Z" stroke-linecap="round"/>
</g>
		<g transform="matrix(1 0 0 1 -129 -99.5)">
<path style="stroke: none; stroke-width: 1; stroke-dasharray: none; stroke-linecap: butt; stroke-dashoffset: 0; stroke-linejoin: miter; stroke-miterlimit: 4; is-custom-font: none; font-file-url: none; fill: rgb(29,65,49); fill-rule: evenodd; opacity: 0.373;" transform=" translate(-33.5, -9)" d="M 32.5 7.5 C 33.9063 7.97306 34.573 8.97306 34.5 10.5 C 33.0937 10.0269 32.427 9.02694 32.5 7.5 Z" stroke-linecap="round"/>
</g>
		<g transform="matrix(1 0 0 1 -160 -98.5)">
<path style="stroke: none; stroke-width: 1; stroke-dasharray: none; stroke-linecap: butt; stroke-dashoffset: 0; stroke-linejoin: miter; stroke-miterlimit: 4; is-custom-font: none; font-file-url: none; fill: rgb(29,63,47); fill-rule: evenodd; opacity: 0.325;" transform=" translate(-2.5, -10)" d="M 3.5 8.5 C 3.57298 10.0269 2.90632 11.0269 1.5 11.5 C 1.42702 9.97306 2.09368 8.97306 3.5 8.5 Z" stroke-linecap="round"/>
</g>
		<g transform="matrix(1 0 0 1 -126.9687 -14.5)">
<path style="stroke: none; stroke-width: 1; stroke-dasharray: none; stroke-linecap: butt; stroke-dashoffset: 0; stroke-linejoin: miter; stroke-miterlimit: 4; is-custom-font: none; font-file-url: none; fill: rgb(55,132,97); fill-rule: evenodd; opacity: 0.745;" transform=" translate(-35.5313, -94)" d="M 34.5 10.5 C 35.2679 11.2625 35.7679 12.2625 36 13.5 C 36.5 68.1657 36.6667 122.832 36.5 177.5 C 35.817 121.98 35.1504 66.3129 34.5 10.5 Z" stroke-linecap="round"/>
</g>
		<g transform="matrix(1 0 0 1 125.1239 -11)">
<path style="stroke: none; stroke-width: 1; stroke-dasharray: none; stroke-linecap: butt; stroke-dashoffset: 0; stroke-linejoin: miter; stroke-miterlimit: 4; is-custom-font: none; font-file-url: none; fill: rgb(44,105,77); fill-rule: evenodd; opacity: 0.578;" transform=" translate(-287.6239, -97.5)" d="M 288.5 14.5 C 289.163 70.1767 288.496 125.51 286.5 180.5 C 287.163 125.069 287.829 69.7357 288.5 14.5 Z" stroke-linecap="round"/>
</g>
		<g transform="matrix(1 0 0 1 36.5 -60.9804)">
<path style="stroke: none; stroke-width: 1; stroke-dasharray: none; stroke-linecap: butt; stroke-dashoffset: 0; stroke-linejoin: miter; stroke-miterlimit: 4; is-custom-font: none; font-file-url: none; fill: rgb(41,87,65); fill-rule: evenodd; opacity: 0.949;" transform=" translate(-199, -47.5196)" d="M 197.5 46.5 C 198.71 46.9321 199.71 47.5987 200.5 48.5 C 198.821 48.7148 197.821 48.0481 197.5 46.5 Z" stroke-linecap="round"/>
</g>
		<g transform="matrix(1 0 0 1 -38.5 -60)">
<path style="stroke: none; stroke-width: 1; stroke-dasharray: none; stroke-linecap: butt; stroke-dashoffset: 0; stroke-linejoin: miter; stroke-miterlimit: 4; is-custom-font: none; font-file-url: none; fill: rgb(35,76,57); fill-rule: evenodd; opacity: 0.694;" transform=" translate(-124, -48.5)" d="M 125.5 47.5 C 125.027 48.9063 124.027 49.573 122.5 49.5 C 122.973 48.0937 123.973 47.427 125.5 47.5 Z" stroke-linecap="round"/>
</g>
		<g transform="matrix(1 0 0 1 -45 -54.5)">
<path style="stroke: none; stroke-width: 1; stroke-dasharray: none; stroke-linecap: butt; stroke-dashoffset: 0; stroke-linejoin: miter; stroke-miterlimit: 4; is-custom-font: none; font-file-url: none; fill: rgb(51,119,88); fill-rule: evenodd; opacity: 0.922;" transform=" translate(-117.5, -54)" d="M 121.5 50.5 C 119.431 53.5725 116.764 55.9059 113.5 57.5 C 115.569 54.4275 118.236 52.0941 121.5 50.5 Z" stroke-linecap="round"/>
</g>
		<g transform="matrix(1 0 0 1 -54 -45.5)">
<path style="stroke: none; stroke-width: 1; stroke-dasharray: none; stroke-linecap: butt; stroke-dashoffset: 0; stroke-linejoin: miter; stroke-miterlimit: 4; is-custom-font: none; font-file-url: none; fill: rgb(39,85,63); fill-rule: evenodd; opacity: 0.792;" transform=" translate(-108.5, -63)" d="M 109.5 61.5 C 109.573 63.0269 108.906 64.0269 107.5 64.5 C 107.427 62.9731 108.094 61.9731 109.5 61.5 Z" stroke-linecap="round"/>
</g>
		<g transform="matrix(1 0 0 1 59 -37.5)">
<path style="stroke: none; stroke-width: 1; stroke-dasharray: none; stroke-linecap: butt; stroke-dashoffset: 0; stroke-linejoin: miter; stroke-miterlimit: 4; is-custom-font: none; font-file-url: none; fill: rgb(32,71,52); fill-rule: evenodd; opacity: 0.424;" transform=" translate(-221.5, -71)" d="M 220.5 69.5 C 221.906 69.9731 222.573 70.9731 222.5 72.5 C 221.094 72.0269 220.427 71.0269 220.5 69.5 Z" stroke-linecap="round"/>
</g>
		<g transform="matrix(1 0 0 1 -61 -35.5)">
<path style="stroke: none; stroke-width: 1; stroke-dasharray: none; stroke-linecap: butt; stroke-dashoffset: 0; stroke-linejoin: miter; stroke-miterlimit: 4; is-custom-font: none; font-file-url: none; fill: rgb(33,73,54); fill-rule: evenodd; opacity: 0.42;" transform=" translate(-101.5, -73)" d="M 102.5 71.5 C 102.573 73.0269 101.906 74.0269 100.5 74.5 C 100.427 72.9731 101.094 71.9731 102.5 71.5 Z" stroke-linecap="round"/>
</g>
		<g transform="matrix(1 0 0 1 -29 30.5)">
<path style="stroke: none; stroke-width: 1; stroke-dasharray: none; stroke-linecap: butt; stroke-dashoffset: 0; stroke-linejoin: miter; stroke-miterlimit: 4; is-custom-font: none; font-file-url: none; fill: rgb(32,69,52); fill-rule: evenodd; opacity: 0.431;" transform=" translate(-133.5, -139)" d="M 132.5 137.5 C 133.906 137.973 134.573 138.973 134.5 140.5 C 133.094 140.027 132.427 139.027 132.5 137.5 Z" stroke-linecap="round"/>
</g>
		<g transform="matrix(1 0 0 1 -26.5 34)">
<path style="stroke: none; stroke-width: 1; stroke-dasharray: none; stroke-linecap: butt; stroke-dashoffset: 0; stroke-linejoin: miter; stroke-miterlimit: 4; is-custom-font: none; font-file-url: none; fill: rgb(39,86,64); fill-rule: evenodd; opacity: 0.871;" transform=" translate(-136, -142.5)" d="M 134.5 140.5 C 136.262 141.262 137.262 142.596 137.5 144.5 C 135.738 143.738 134.738 142.404 134.5 140.5 Z" stroke-linecap="round"/>
</g>
		<g transform="matrix(1 0 0 1 26 33.5)">
<path style="stroke: none; stroke-width: 1; stroke-dasharray: none; stroke-linecap: butt; stroke-dashoffset: 0; stroke-linejoin: miter; stroke-miterlimit: 4; is-custom-font: none; font-file-url: none; fill: rgb(36,78,58); fill-rule: evenodd; opacity: 0.608;" transform=" translate(-188.5, -142)" d="M 190.5 139.5 C 189.92 141.749 188.587 143.415 186.5 144.5 C 187.08 142.251 188.413 140.585 190.5 139.5 Z" stroke-linecap="round"/>
</g>
		<g transform="matrix(1 0 0 1 7 52.5)">
<path style="stroke: none; stroke-width: 1; stroke-dasharray: none; stroke-linecap: butt; stroke-dashoffset: 0; stroke-linejoin: miter; stroke-miterlimit: 4; is-custom-font: none; font-file-url: none; fill: rgb(37,77,58); fill-rule: evenodd; opacity: 0.62;" transform=" translate(-169.5, -161)" d="M 176.5 154.5 C 172.441 159.562 167.774 163.895 162.5 167.5 C 166.559 162.438 171.226 158.105 176.5 154.5 Z" stroke-linecap="round"/>
</g>
		<g transform="matrix(1 0 0 1 -59.9803 52.5)">
<path style="stroke: none; stroke-width: 1; stroke-dasharray: none; stroke-linecap: butt; stroke-dashoffset: 0; stroke-linejoin: miter; stroke-miterlimit: 4; is-custom-font: none; font-file-url: none; fill: rgb(42,91,67); fill-rule: evenodd; opacity: 0.957;" transform=" translate(-102.5197, -161)" d="M 101.5 159.5 C 103.048 159.821 103.715 160.821 103.5 162.5 C 102.599 161.71 101.932 160.71 101.5 159.5 Z" stroke-linecap="round"/>
</g>
		<g transform="matrix(1 0 0 1 -125 71)">
<path style="stroke: none; stroke-width: 1; stroke-dasharray: none; stroke-linecap: butt; stroke-dashoffset: 0; stroke-linejoin: miter; stroke-miterlimit: 4; is-custom-font: none; font-file-url: none; fill: rgb(27,54,41); fill-rule: evenodd; opacity: 0.557;" transform=" translate(-37.5, -179.5)" d="M 36.5 178.5 C 37.5 178.833 38.1667 179.5 38.5 180.5 C 37.1667 180.5 36.5 179.833 36.5 178.5 Z" stroke-linecap="round"/>
</g>
		<g transform="matrix(1 0 0 1 -83.4803 71.5619)">
<path style="stroke: none; stroke-width: 1; stroke-dasharray: none; stroke-linecap: butt; stroke-dashoffset: 0; stroke-linejoin: miter; stroke-miterlimit: 4; is-custom-font: none; font-file-url: none; fill: rgb(45,109,80); fill-rule: evenodd; opacity: 0.6;" transform=" translate(-79.0197, -180.0619)" d="M 117.5 178.5 C 119.048 178.821 119.715 179.821 119.5 181.5 C 92.3282 181.831 65.3282 181.498 38.5 180.5 C 65.1687 180.667 91.8354 180.5 118.5 180 C 117.944 179.617 117.611 179.117 117.5 178.5 Z" stroke-linecap="round"/>
</g>
		<g transform="matrix(1 0 0 1 83 71.9984)">
<path style="stroke: none; stroke-width: 1; stroke-dasharray: none; stroke-linecap: butt; stroke-dashoffset: 0; stroke-linejoin: miter; stroke-miterlimit: 4; is-custom-font: none; font-file-url: none; fill: rgb(43,104,77); fill-rule: evenodd; opacity: 0.533;" transform=" translate(-245.5, -180.4984)" d="M 205.5 179.5 C 232.328 180.498 259.328 180.831 286.5 180.5 C 259.33 181.829 231.997 181.829 204.5 180.5 C 204.624 179.893 204.957 179.56 205.5 179.5 Z" stroke-linecap="round"/>
</g>
</g>
</g>
<g transform="matrix(0.3502 0 0 0.3502 342.5279 373.9718)" id="159474">
<g style="" vector-effect="non-scaling-stroke">
		<g transform="matrix(1 0 0 1 -65.733 -65.3752)" id="_x32_67-python">
<path style="stroke: none; stroke-width: 1; stroke-dasharray: none; stroke-linecap: butt; stroke-dashoffset: 0; stroke-linejoin: miter; stroke-miterlimit: 4; is-custom-font: none; font-file-url: none; fill: rgb(52,122,180); fill-rule: nonzero; opacity: 1;" transform=" translate(-190.2669, -190.6247)" d="M 194.005 240.252 h 105.054 c 29.216 0 52.529 -24.101 52.529 -53.414 V 86.603 c 0 -28.525 -24.002 -49.871 -52.529 -54.691 c -35.214 -5.804 -73.478 -5.509 -105.054 0.097 c -44.462 7.87 -52.527 24.298 -52.527 54.693 v 21.453 H 246.63 v 31.959 H 102.033 c -30.591 0 -57.349 18.394 -65.709 53.315 c -9.64 40.035 -10.033 65.02 0 106.826 c 7.476 31.085 25.28 53.314 55.872 53.314 h 36.101 v -48.001 C 128.296 270.845 158.298 240.252 194.005 240.252 L 194.005 240.252 z" stroke-linecap="round"/>
</g>
		<g transform="matrix(1 0 0 1 65.3833 64.1885)" id="_x32_67-python">
<path style="stroke: none; stroke-width: 1; stroke-dasharray: none; stroke-linecap: butt; stroke-dashoffset: 0; stroke-linejoin: miter; stroke-miterlimit: 4; is-custom-font: none; font-file-url: none; fill: rgb(255,202,29); fill-rule: nonzero; opacity: 1;" transform=" translate(-321.3833, -320.1885)" d="M 474.975 209.372 c -7.575 -30.395 -21.935 -53.315 -52.527 -53.315 h -39.443 v 46.626 c 0 36.199 -30.692 66.691 -65.71 66.691 H 212.24 c -28.724 0 -52.528 24.594 -52.528 53.414 v 100.138 c 0 28.524 24.788 45.246 52.528 53.413 c 33.247 9.737 65.215 11.509 105.054 0 c 26.462 -7.675 52.529 -23.116 52.529 -53.413 v -20.997 H 264.867 v -32.417 h 157.58 c 30.593 0 41.904 -21.346 52.527 -53.314 C 485.992 283.244 485.501 251.57 474.975 209.372 L 474.975 209.372 z" stroke-linecap="round"/>
</g>
		<g transform="matrix(1 0 0 1 -68.5845 -185.6175)" id="_x32_67-python">
<path style="stroke: none; stroke-width: 1; stroke-dasharray: none; stroke-linecap: butt; stroke-dashoffset: 0; stroke-linejoin: miter; stroke-miterlimit: 4; is-custom-font: none; font-file-url: none; fill: rgb(255,255,255); fill-rule: nonzero; opacity: 1;" transform=" translate(-187.4155, -70.3825)" d="M 187.415 89.594 c -10.479 0 -18.975 -8.591 -18.975 -19.164 c 0.094 -10.668 8.496 -19.259 18.975 -19.259 c 10.385 0 18.976 8.685 18.976 19.259 C 206.39 81.003 197.894 89.594 187.415 89.594 z" stroke-linecap="round"/>
</g>
		<g transform="matrix(1 0 0 1 58.908 184.8645)" id="_x32_67-python">
<path style="stroke: none; stroke-width: 1; stroke-dasharray: none; stroke-linecap: butt; stroke-dashoffset: 0; stroke-linejoin: miter; stroke-miterlimit: 4; is-custom-font: none; font-file-url: none; fill: rgb(255,255,255); fill-rule: nonzero; opacity: 1;" transform=" translate(-314.908, -440.8645)" d="M 314.908 460.076 c -10.479 0 -18.976 -8.591 -18.976 -19.164 c 0.095 -10.668 8.496 -19.259 18.976 -19.259 c 10.385 0 18.976 8.685 18.976 19.259 C 333.884 451.485 325.388 460.076 314.908 460.076 z" stroke-linecap="round"/>
</g>
</g>
</g>
<g transform="matrix(1 0 0 1 498.6467 610.7904)" style="" id="118148">
		
<path xml:space="preserve" font-family="Fira Mono" font-size="120" font-style="normal" font-weight="normal" style="stroke: none; stroke-width: 1; stroke-dasharray: none; stroke-linecap: butt; stroke-dashoffset: 0; stroke-linejoin: miter; stroke-miterlimit: 4; is-custom-font: none; font-file-url: none; fill: rgb(0,0,0); fill-rule: nonzero; opacity: 1; white-space: pre;" d="M-355.68-26.86Q-332.76-26.86-332.76 6.02L-332.76 6.02Q-332.76 21.02-339 30.02Q-345.24 39.02-357.12 39.02L-357.12 39.02Q-367.44 39.02-373.92 31.82L-373.92 31.82L-373.92 61.94L-384 63.14L-384-25.54L-375.36-25.54L-374.52-16.66Q-371.04-21.58-366.18-24.22Q-361.32-26.86-355.68-26.86L-355.68-26.86ZM-358.08-18.70Q-362.88-18.70-366.90-15.82Q-370.92-12.94-373.92-8.62L-373.92-8.62L-373.92 22.70Q-371.40 26.42-367.62 28.52Q-363.84 30.62-359.40 30.62L-359.40 30.62Q-351.48 30.62-347.58 24.56Q-343.68 18.50-343.68 6.02L-343.68 6.02Q-343.68-6.46-347.16-12.58Q-350.64-18.70-358.08-18.70L-358.08-18.70ZM-259.44-25.54L-281.52 38.06Q-285.24 48.98-291.72 55.46Q-298.20 61.94-309.84 63.14L-309.84 63.14L-311.28 55.10Q-304.92 54.02-301.14 51.80Q-297.36 49.58-295.20 46.28Q-293.04 42.98-291.24 37.70L-291.24 37.70L-294.60 37.70L-316.56-25.54L-305.88-25.54L-287.76 30.02L-269.88-25.54L-259.44-25.54ZM-226.56-36.34L-226.56-8.50L-195.84-8.50L-195.84 0.02L-226.56 0.02L-226.56 29.30L-188.88 29.30L-188.88 37.70L-236.88 37.70L-236.88-44.98L-189.96-44.98L-191.16-36.34L-226.56-36.34ZM-117.72 34.46Q-120.96 36.62-125.58 37.82Q-130.20 39.02-134.76 39.02L-134.76 39.02Q-144.72 39.02-150.36 33.80Q-156 28.58-156 20.06L-156 20.06L-156-17.62L-170.52-17.62L-170.52-25.54L-156-25.54L-156-39.82L-145.92-41.02L-145.92-25.54L-123.96-25.54L-125.28-17.62L-145.92-17.62L-145.92 19.94Q-145.92 25.34-143.04 27.98Q-140.16 30.62-133.80 30.62L-133.80 30.62Q-127.32 30.62-121.68 27.62L-121.68 27.62L-117.72 34.46ZM-85.92-51.94L-85.92-16.78Q-82.20-21.58-76.80-24.22Q-71.40-26.86-65.64-26.86L-65.64-26.86Q-47.88-26.86-47.88-8.14L-47.88-8.14L-47.88 37.70L-57.96 37.70L-57.96-8.02Q-57.96-13.66-60.60-16.24Q-63.24-18.82-69-18.82L-69-18.82Q-73.92-18.82-78.48-15.70Q-83.04-12.58-85.92-8.38L-85.92-8.38L-85.92 37.70L-96 37.70L-96-50.86L-85.92-51.94ZM0-55.06Q3.36-55.06 5.40-53.08Q7.44-51.10 7.44-47.98L7.44-47.98Q7.44-44.86 5.40-42.88Q3.36-40.90 0-40.90L0-40.90Q-3.24-40.90-5.22-42.88Q-7.20-44.86-7.20-47.98L-7.20-47.98Q-7.20-51.10-5.22-53.08Q-3.24-55.06 0-55.06L0-55.06ZM8.04-25.54L8.04 29.66L25.80 29.66L25.80 37.70L-21.48 37.70L-21.48 29.66L-2.04 29.66L-2.04-17.50L-20.88-17.50L-20.88-25.54L8.04-25.54ZM72.12-26.86Q85.20-26.86 92.22-18.04Q99.24-9.22 99.24 6.02L99.24 6.02Q99.24 20.90 92.10 29.96Q84.96 39.02 72 39.02L72 39.02Q58.92 39.02 51.84 30.20Q44.76 21.38 44.76 6.14L44.76 6.14Q44.76-8.86 51.90-17.86Q59.04-26.86 72.12-26.86L72.12-26.86ZM72.12-18.58Q63.84-18.58 59.76-12.46Q55.68-6.34 55.68 6.14L55.68 6.14Q55.68 18.62 59.70 24.68Q63.72 30.74 72 30.74L72 30.74Q80.28 30.74 84.30 24.68Q88.32 18.62 88.32 6.02L88.32 6.02Q88.32-6.46 84.30-12.52Q80.28-18.58 72.12-18.58L72.12-18.58ZM167.64-44.98L167.64 10.22Q167.64 22.34 160.98 30.74Q154.32 39.14 139.32 39.14L139.32 39.14Q133.20 39.14 127.38 37.22Q121.56 35.30 116.76 31.58L116.76 31.58L121.32 24.74Q130.32 30.38 139.20 30.38L139.20 30.38Q147.84 30.38 152.52 24.92Q157.20 19.46 157.20 9.74L157.20 9.74L157.20-36.46L132.72-36.46L132.72-44.98L167.64-44.98ZM216.12-26.86Q229.20-26.86 236.22-18.04Q243.24-9.22 243.24 6.02L243.24 6.02Q243.24 20.90 236.10 29.96Q228.96 39.02 216 39.02L216 39.02Q202.92 39.02 195.84 30.20Q188.76 21.38 188.76 6.14L188.76 6.14Q188.76-8.86 195.90-17.86Q203.04-26.86 216.12-26.86L216.12-26.86ZM216.12-18.58Q207.84-18.58 203.76-12.46Q199.68-6.34 199.68 6.14L199.68 6.14Q199.68 18.62 203.70 24.68Q207.72 30.74 216 30.74L216 30.74Q224.28 30.74 228.30 24.68Q232.32 18.62 232.32 6.02L232.32 6.02Q232.32-6.46 228.30-12.52Q224.28-18.58 216.12-18.58L216.12-18.58ZM274.08-17.26Q281.40-26.86 292.20-26.86L292.20-26.86Q304.32-26.86 310.08-18.22Q315.84-9.58 315.84 6.02L315.84 6.02Q315.84 20.90 309.24 29.96Q302.64 39.02 290.76 39.02L290.76 39.02Q279.84 39.02 273.60 31.10L273.60 31.10L272.88 37.70L264 37.70L264-50.98L274.08-52.18L274.08-17.26ZM288.48 30.86Q296.40 30.86 300.66 24.62Q304.92 18.38 304.92 6.02L304.92 6.02Q304.92-6.22 301.14-12.46Q297.36-18.70 289.92-18.70L289.92-18.70Q285.12-18.70 281.10-15.82Q277.08-12.94 274.08-8.62L274.08-8.62L274.08 22.70Q276.60 26.54 280.32 28.70Q284.04 30.86 288.48 30.86L288.48 30.86ZM357.60 30.74Q364.80 30.74 369 27.98Q373.20 25.22 373.20 20.66L373.20 20.66Q373.20 17.54 372.12 15.56Q371.04 13.58 367.80 11.96Q364.56 10.34 357.96 8.66L357.96 8.66Q346.92 5.90 341.64 2.00Q336.36-1.90 336.36-9.58L336.36-9.58Q336.36-17.50 342.96-22.18Q349.56-26.86 360.36-26.86L360.36-26.86Q373.56-26.86 383.40-19.90L383.40-19.90L378.84-12.94Q374.88-15.70 370.56-17.20Q366.24-18.70 360.60-18.70L360.60-18.70Q346.92-18.70 346.92-10.42L346.92-10.42Q346.92-7.54 348.42-5.74Q349.92-3.94 353.34-2.56Q356.76-1.18 363.60 0.74L363.60 0.74Q373.92 3.50 379.02 7.76Q384.12 12.02 384.12 20.18L384.12 20.18Q384.12 29.66 376.44 34.34Q368.76 39.02 357.60 39.02L357.60 39.02Q342.72 39.02 332.88 30.50L332.88 30.50L338.52 23.90Q342.36 27.02 347.28 28.88Q352.20 30.74 357.60 30.74L357.60 30.74Z"/></g>
</svg>